<svg xmlns="http://www.w3.org/2000/svg" width="20" height="20" viewBox="0 0 32 32" fill="none">
  <path d="M27.7901 22.8599C27.3465 23.8847 26.8215 24.8281 26.2131 25.6954C25.3838 26.8777 24.7048 27.6961 24.1815 28.1506C23.3704 28.8966 22.5013 29.2786 21.5706 29.3004C20.9025 29.3004 20.0967 29.1103 19.1588 28.7246C18.2178 28.3407 17.3531 28.1506 16.5624 28.1506C15.7331 28.1506 14.8437 28.3407 13.8924 28.7246C12.9396 29.1103 12.1721 29.3112 11.5853 29.3312C10.6928 29.3692 9.80323 28.9763 8.91529 28.1506C8.34856 27.6563 7.6397 26.8089 6.79051 25.6085C5.87939 24.3265 5.13033 22.84 4.5435 21.1452C3.91503 19.3147 3.59998 17.542 3.59998 15.8259C3.59998 13.8601 4.02475 12.1646 4.87557 10.7438C5.54424 9.60255 6.43381 8.7023 7.54717 8.04141C8.66054 7.38053 9.86353 7.04375 11.159 7.0222C11.8679 7.0222 12.7975 7.24147 13.9527 7.6724C15.1046 8.10478 15.8443 8.32405 16.1685 8.32405C16.411 8.32405 17.2327 8.06767 18.6256 7.55652C19.9428 7.08249 21.0546 6.88622 21.9653 6.96354C24.4332 7.16271 26.2873 8.13557 27.5204 9.88827C25.3132 11.2256 24.2214 13.0987 24.2431 15.5016C24.263 17.3733 24.942 18.9308 26.2764 20.1675C26.8812 20.7415 27.5566 21.1851 28.308 21.5001C28.145 21.9727 27.973 22.4254 27.7901 22.8599ZM22.1301 0.587169C22.1301 2.05417 21.5941 3.42391 20.5259 4.69172C19.2367 6.1989 17.6774 7.06982 15.9864 6.93239C15.9648 6.7564 15.9524 6.57117 15.9524 6.37652C15.9524 4.9682 16.5654 3.46102 17.6542 2.2287C18.1977 1.60475 18.889 1.08595 19.7274 0.672088C20.5639 0.264403 21.3551 0.0389445 22.0993 0.000335693C22.121 0.196451 22.1301 0.392578 22.1301 0.58715V0.587169Z" fill="white"/>
</svg>