<svg xmlns="http://www.w3.org/2000/svg" width="20" height="20" viewBox="0 0 32 32" fill="none">
                  <g clip-path="url(#clip0_1_1331)">
                    <path
                      d="M31.688 16.3686C31.688 15.2809 31.5998 14.1874 31.4117 13.1174H16.3199V19.2787H24.9623C24.6036 21.2659 23.4513 23.0237 21.764 24.1408V28.1386H26.92C29.9478 25.3519 31.688 21.2365 31.688 16.3686Z"
                      fill="#4285F4"
                    />
                    <path
                      d="M16.32 32.0011C20.6352 32.0011 24.2744 30.5842 26.9259 28.1385L21.7699 24.1407C20.3354 25.1167 18.4835 25.6693 16.3259 25.6693C12.1517 25.6693 8.61246 22.8532 7.34257 19.067H2.02197V23.1883C4.73812 28.5912 10.2704 32.0011 16.32 32.0011Z"
                      fill="#34A853"
                    />
                    <path
                      d="M7.33667 19.067C6.66645 17.0799 6.66645 14.9281 7.33667 12.941V8.81973H2.02195C-0.247388 13.3408 -0.247388 18.6672 2.02195 23.1883L7.33667 19.067Z"
                      fill="#FBBC04"
                    />
                    <path
                      d="M16.32 6.33288C18.6011 6.29761 20.8057 7.15596 22.4578 8.73156L27.0258 4.16349C24.1333 1.44734 20.2943 -0.0459547 16.32 0.00107822C10.2704 0.00107822 4.73812 3.41096 2.02197 8.81974L7.33669 12.941C8.6007 9.14897 12.1458 6.33288 16.32 6.33288Z"
                      fill="#EA4335"
                    />
                  </g>
                  <defs>
                    <clipPath id="clip0_1_1331">
                      <rect width="32" height="32" fill="white" />
                    </clipPath>
                  </defs>
                </svg>